<svg xmlns="http://www.w3.org/2000/svg" xmlns:xlink="http://www.w3.org/1999/xlink" viewBox="0 0 289.69 128.94"><defs><style>.cls-1{fill:url(#linear-gradient);}.cls-2{fill:url(#linear-gradient-2);}.cls-3{fill:url(#linear-gradient-3);}</style><linearGradient id="linear-gradient" y1="82.84" x2="152.92" y2="82.84" gradientUnits="userSpaceOnUse"><stop offset="0" stop-color="#00c6db"/><stop offset="1" stop-color="#96e148"/></linearGradient><linearGradient id="linear-gradient-2" x1="19.86" y1="64.47" x2="172.78" y2="64.47" xlink:href="#linear-gradient"/><linearGradient id="linear-gradient-3" x1="39.71" y1="46.1" x2="289.69" y2="46.1" xlink:href="#linear-gradient"/></defs><g id="Capa_2" data-name="Capa 2"><g id="Capa_1-2" data-name="Capa 1"><polygon class="cls-1" points="60.64 117 21.64 36.75 0 36.75 44.81 128.94 152.92 104.14 60.64 117"/><polygon class="cls-2" points="80.49 98.63 41.49 18.37 19.86 18.37 64.66 110.57 172.78 98.63 80.49 98.63"/><path class="cls-3" d="M284.57,82h-93a5.12,5.12,0,0,1,0-10.24h66.32a5.13,5.13,0,0,0,0-10.25H210.81a5.12,5.12,0,0,1,0-10.24H222.1a5.12,5.12,0,1,0,0-10.24H153.54a5.13,5.13,0,0,1,0-10.25H232.2a5.12,5.12,0,1,0,0-10.24H183.86a5.13,5.13,0,0,1,0-10.25h71.62a5.12,5.12,0,1,0,0-10.24H39.71L84.52,92.19h200a5.12,5.12,0,1,0,0-10.24ZM129,68.71q-2.23,3.72-8.53,4.4l3,7.08h-5.68l-3-7a28.36,28.36,0,0,1-13.06-4.74,25.31,25.31,0,0,1-9.3-11.92v-.18h10.19a15.06,15.06,0,0,0,5.13,6.86,11.42,11.42,0,0,0,6.47,2.08c2.17,0,3.59-.58,4.25-1.74s.58-2.71-.25-4.66a11.3,11.3,0,0,0-3.68-4.72,25.68,25.68,0,0,0-7.15-3.4,58.64,58.64,0,0,1-14.53-6.45,22,22,0,0,1-8.11-10q-2.56-6-.36-9.85t8.42-4.52L89.5,12.19h5.69L98.5,20a24.57,24.57,0,0,1,12.12,5.26,27.45,27.45,0,0,1,8.31,11.22l0,.18H108.71a17.15,17.15,0,0,0-4.51-6.51,8.78,8.78,0,0,0-5.71-2.29c-2,0-3.32.6-3.82,1.77s-.33,2.75.5,4.71a10.8,10.8,0,0,0,3.52,4.52,27.11,27.11,0,0,0,7.3,3.41,63.13,63.13,0,0,1,14.54,6.65,21.8,21.8,0,0,1,8,9.91C130.33,62.92,130.47,66.24,129,68.71Z"/></g></g></svg>